<?xml version="1.0" encoding="UTF-8" standalone="no"?>
<!DOCTYPE svg PUBLIC "-//W3C//DTD SVG 1.1//EN"
 "http://www.w3.org/Graphics/SVG/1.1/DTD/svg11.dtd">
<!-- Generated by graphviz version 5.0.0 (0)
 -->
<!-- Title: logic_model Pages: 1 -->
<svg width="2703pt" height="666pt"
 viewBox="0.00 0.00 2703.00 666.00" xmlns="http://www.w3.org/2000/svg" xmlns:xlink="http://www.w3.org/1999/xlink">
<g id="graph0" class="graph" transform="scale(1 1) rotate(0) translate(4 662)">
<title>logic_model</title>
<polygon fill="white" stroke="transparent" points="-4,4 -4,-662 2699,-662 2699,4 -4,4"/>
<g id="clust1" class="cluster">
<title>cluster_11</title>
<polygon fill="none" stroke="blue" points="8,-8 8,-650 2687,-650 2687,-8 8,-8"/>
<text text-anchor="start" x="1325.5" y="-627" font-family="Times,serif" font-size="25.00"> </text>
<text text-anchor="start" x="1332.5" y="-627" font-family="Times,serif" font-weight="bold" font-size="25.00">trs</text>
<text text-anchor="start" x="1362.5" y="-627" font-family="Times,serif" font-size="25.00"> </text>
</g>
<!-- Версия входного файла ТПС -->
<g id="node1" class="node">
<title>Версия входного файла ТПС</title>
<polygon fill="lightgrey" stroke="transparent" points="2686,-289.5 2113,-289.5 2113,-120.5 2686,-120.5 2686,-289.5"/>
<polygon fill="green" stroke="transparent" points="2121.5,-262 2121.5,-285 2355.5,-285 2355.5,-262 2121.5,-262"/>
<polygon fill="none" stroke="black" points="2121.5,-262 2121.5,-285 2355.5,-285 2355.5,-262 2121.5,-262"/>
<text text-anchor="start" x="2126" y="-270" font-family="Helvetica,sans-Serif" font-size="15.00">Версия входного файла ТПС</text>
<polygon fill="green" stroke="transparent" points="2355.5,-262 2355.5,-285 2476.5,-285 2476.5,-262 2355.5,-262"/>
<polygon fill="none" stroke="black" points="2355.5,-262 2355.5,-285 2476.5,-285 2476.5,-262 2355.5,-262"/>
<text text-anchor="start" x="2375" y="-270" font-family="Helvetica,sans-Serif" font-size="15.00">trs_version</text>
<polygon fill="green" stroke="transparent" points="2476.5,-262 2476.5,-285 2678.5,-285 2678.5,-262 2476.5,-262"/>
<polygon fill="none" stroke="black" points="2476.5,-262 2476.5,-285 2678.5,-285 2678.5,-262 2476.5,-262"/>
<text text-anchor="start" x="2557.5" y="-270" font-family="Helvetica,sans-Serif" font-size="15.00"> Type</text>
<polygon fill="none" stroke="black" points="2121.5,-239 2121.5,-262 2355.5,-262 2355.5,-239 2121.5,-239"/>
<text text-anchor="start" x="2124.5" y="-247" font-family="Helvetica,sans-Serif" font-size="15.00">Создавший пользователь</text>
<polygon fill="none" stroke="black" points="2355.5,-239 2355.5,-262 2476.5,-262 2476.5,-239 2355.5,-239"/>
<text text-anchor="start" x="2358.5" y="-247" font-family="Helvetica,sans-Serif" font-size="15.00">create_user_id</text>
<polygon fill="none" stroke="black" points="2476.5,-239 2476.5,-262 2678.5,-262 2678.5,-239 2476.5,-239"/>
<text text-anchor="start" x="2479.5" y="-247" font-family="Helvetica,sans-Serif" font-size="15.00">bigint</text>
<polygon fill="none" stroke="black" points="2121.5,-216 2121.5,-239 2355.5,-239 2355.5,-216 2121.5,-216"/>
<text text-anchor="start" x="2124.5" y="-224" font-family="Helvetica,sans-Serif" font-size="15.00">Обновивший пользователь</text>
<polygon fill="none" stroke="black" points="2355.5,-216 2355.5,-239 2476.5,-239 2476.5,-216 2355.5,-216"/>
<text text-anchor="start" x="2358.5" y="-224" font-family="Helvetica,sans-Serif" font-size="15.00">update_user_id</text>
<polygon fill="none" stroke="black" points="2476.5,-216 2476.5,-239 2678.5,-239 2678.5,-216 2476.5,-216"/>
<text text-anchor="start" x="2479.5" y="-224" font-family="Helvetica,sans-Serif" font-size="15.00">bigint</text>
<polygon fill="none" stroke="black" points="2121.5,-193 2121.5,-216 2355.5,-216 2355.5,-193 2121.5,-193"/>
<text text-anchor="start" x="2124.5" y="-201" font-family="Helvetica,sans-Serif" font-size="15.00">Суррогатный ключ</text>
<polygon fill="none" stroke="black" points="2355.5,-193 2355.5,-216 2476.5,-216 2476.5,-193 2355.5,-193"/>
<text text-anchor="start" x="2358.5" y="-201" font-family="Helvetica,sans-Serif" font-size="15.00">id</text>
<polygon fill="none" stroke="black" points="2476.5,-193 2476.5,-216 2678.5,-216 2678.5,-193 2476.5,-193"/>
<text text-anchor="start" x="2479.5" y="-201" font-family="Helvetica,sans-Serif" font-size="15.00">bigint</text>
<polygon fill="none" stroke="black" points="2121.5,-170 2121.5,-193 2355.5,-193 2355.5,-170 2121.5,-170"/>
<text text-anchor="start" x="2124.5" y="-178" font-family="Helvetica,sans-Serif" font-size="15.00">Момент создания объекта</text>
<polygon fill="none" stroke="black" points="2355.5,-170 2355.5,-193 2476.5,-193 2476.5,-170 2355.5,-170"/>
<text text-anchor="start" x="2358.5" y="-178" font-family="Helvetica,sans-Serif" font-size="15.00">create_ts</text>
<polygon fill="none" stroke="black" points="2476.5,-170 2476.5,-193 2678.5,-193 2678.5,-170 2476.5,-170"/>
<text text-anchor="start" x="2479.5" y="-178" font-family="Helvetica,sans-Serif" font-size="15.00">timestamp with time zone</text>
<polygon fill="none" stroke="black" points="2121.5,-147 2121.5,-170 2355.5,-170 2355.5,-147 2121.5,-147"/>
<text text-anchor="start" x="2124.5" y="-155" font-family="Helvetica,sans-Serif" font-size="15.00">Момент обновления объекта</text>
<polygon fill="none" stroke="black" points="2355.5,-147 2355.5,-170 2476.5,-170 2476.5,-147 2355.5,-147"/>
<text text-anchor="start" x="2358.5" y="-155" font-family="Helvetica,sans-Serif" font-size="15.00">update_ts</text>
<polygon fill="none" stroke="black" points="2476.5,-147 2476.5,-170 2678.5,-170 2678.5,-147 2476.5,-147"/>
<text text-anchor="start" x="2479.5" y="-155" font-family="Helvetica,sans-Serif" font-size="15.00">timestamp with time zone</text>
<polygon fill="none" stroke="black" points="2121.5,-124 2121.5,-147 2355.5,-147 2355.5,-124 2121.5,-124"/>
<text text-anchor="start" x="2124.5" y="-132" font-family="Helvetica,sans-Serif" font-size="15.00">Срок действия объекта</text>
<polygon fill="none" stroke="black" points="2355.5,-124 2355.5,-147 2476.5,-147 2476.5,-124 2355.5,-124"/>
<text text-anchor="start" x="2358.5" y="-132" font-family="Helvetica,sans-Serif" font-size="15.00">end_ts</text>
<polygon fill="none" stroke="black" points="2476.5,-124 2476.5,-147 2678.5,-147 2678.5,-124 2476.5,-124"/>
<text text-anchor="start" x="2479.5" y="-132" font-family="Helvetica,sans-Serif" font-size="15.00">timestamp with time zone</text>
</g>
<!-- Данные ТПС по типам подвижного состава -->
<g id="node2" class="node">
<title>Данные ТПС по типам подвижного состава</title>
<polygon fill="lightgrey" stroke="transparent" points="1897,-592.5 1078,-592.5 1078,-377.5 1897,-377.5 1897,-592.5"/>
<polygon fill="green" stroke="transparent" points="1086.5,-565 1086.5,-588 1434.5,-588 1434.5,-565 1086.5,-565"/>
<polygon fill="none" stroke="black" points="1086.5,-565 1086.5,-588 1434.5,-588 1434.5,-565 1086.5,-565"/>
<text text-anchor="start" x="1089.5" y="-573" font-family="Helvetica,sans-Serif" font-size="15.00">Данные ТПС по типам подвижного состава</text>
<polygon fill="green" stroke="transparent" points="1434.5,-565 1434.5,-588 1687.5,-588 1687.5,-565 1434.5,-565"/>
<polygon fill="none" stroke="black" points="1434.5,-565 1434.5,-588 1687.5,-588 1687.5,-565 1434.5,-565"/>
<text text-anchor="start" x="1437.5" y="-573" font-family="Helvetica,sans-Serif" font-size="15.00">trs_values_by_rolling_stock_type</text>
<polygon fill="green" stroke="transparent" points="1687.5,-565 1687.5,-588 1889.5,-588 1889.5,-565 1687.5,-565"/>
<polygon fill="none" stroke="black" points="1687.5,-565 1687.5,-588 1889.5,-588 1889.5,-565 1687.5,-565"/>
<text text-anchor="start" x="1768.5" y="-573" font-family="Helvetica,sans-Serif" font-size="15.00"> Type</text>
<polygon fill="none" stroke="black" points="1086.5,-542 1086.5,-565 1434.5,-565 1434.5,-542 1086.5,-542"/>
<text text-anchor="start" x="1089.5" y="-550" font-family="Helvetica,sans-Serif" font-size="15.00">Серия локомотива</text>
<polygon fill="none" stroke="black" points="1434.5,-542 1434.5,-565 1687.5,-565 1687.5,-542 1434.5,-542"/>
<text text-anchor="start" x="1437.5" y="-550" font-family="Helvetica,sans-Serif" font-size="15.00">train_tp_id</text>
<polygon fill="none" stroke="black" points="1687.5,-542 1687.5,-565 1889.5,-565 1889.5,-542 1687.5,-542"/>
<text text-anchor="start" x="1690.5" y="-550" font-family="Helvetica,sans-Serif" font-size="15.00">bigint</text>
<polygon fill="none" stroke="black" points="1086.5,-519 1086.5,-542 1434.5,-542 1434.5,-519 1086.5,-519"/>
<text text-anchor="start" x="1089.5" y="-527" font-family="Helvetica,sans-Serif" font-size="15.00">Тип ремонта</text>
<polygon fill="none" stroke="black" points="1434.5,-519 1434.5,-542 1687.5,-542 1687.5,-519 1434.5,-519"/>
<text text-anchor="start" x="1437.5" y="-527" font-family="Helvetica,sans-Serif" font-size="15.00">repair_type_id</text>
<polygon fill="none" stroke="black" points="1687.5,-519 1687.5,-542 1889.5,-542 1889.5,-519 1687.5,-519"/>
<text text-anchor="start" x="1690.5" y="-527" font-family="Helvetica,sans-Serif" font-size="15.00">bigint</text>
<polygon fill="none" stroke="black" points="1086.5,-496 1086.5,-519 1434.5,-519 1434.5,-496 1086.5,-496"/>
<text text-anchor="start" x="1089.5" y="-504" font-family="Helvetica,sans-Serif" font-size="15.00">Тип подвижного состава</text>
<polygon fill="none" stroke="black" points="1434.5,-496 1434.5,-519 1687.5,-519 1687.5,-496 1434.5,-496"/>
<text text-anchor="start" x="1437.5" y="-504" font-family="Helvetica,sans-Serif" font-size="15.00">rolling_stock_type_id</text>
<polygon fill="none" stroke="black" points="1687.5,-496 1687.5,-519 1889.5,-519 1889.5,-496 1687.5,-496"/>
<text text-anchor="start" x="1690.5" y="-504" font-family="Helvetica,sans-Serif" font-size="15.00">bigint</text>
<polygon fill="none" stroke="black" points="1086.5,-473 1086.5,-496 1434.5,-496 1434.5,-473 1086.5,-473"/>
<text text-anchor="start" x="1089.5" y="-481" font-family="Helvetica,sans-Serif" font-size="15.00">Версия входного файла ТПС</text>
<polygon fill="none" stroke="black" points="1434.5,-473 1434.5,-496 1687.5,-496 1687.5,-473 1434.5,-473"/>
<text text-anchor="start" x="1437.5" y="-481" font-family="Helvetica,sans-Serif" font-size="15.00">trs_version_id</text>
<polygon fill="none" stroke="black" points="1687.5,-473 1687.5,-496 1889.5,-496 1889.5,-473 1687.5,-473"/>
<text text-anchor="start" x="1690.5" y="-481" font-family="Helvetica,sans-Serif" font-size="15.00">bigint</text>
<polygon fill="none" stroke="black" points="1086.5,-450 1086.5,-473 1434.5,-473 1434.5,-450 1086.5,-450"/>
<text text-anchor="start" x="1089.5" y="-458" font-family="Helvetica,sans-Serif" font-size="15.00">Суррогатный ключ</text>
<polygon fill="none" stroke="black" points="1434.5,-450 1434.5,-473 1687.5,-473 1687.5,-450 1434.5,-450"/>
<text text-anchor="start" x="1437.5" y="-458" font-family="Helvetica,sans-Serif" font-size="15.00">id</text>
<polygon fill="none" stroke="black" points="1687.5,-450 1687.5,-473 1889.5,-473 1889.5,-450 1687.5,-450"/>
<text text-anchor="start" x="1690.5" y="-458" font-family="Helvetica,sans-Serif" font-size="15.00">bigint</text>
<polygon fill="none" stroke="black" points="1086.5,-427 1086.5,-450 1434.5,-450 1434.5,-427 1086.5,-427"/>
<text text-anchor="start" x="1089.5" y="-435" font-family="Helvetica,sans-Serif" font-size="15.00">Момент создания объекта</text>
<polygon fill="none" stroke="black" points="1434.5,-427 1434.5,-450 1687.5,-450 1687.5,-427 1434.5,-427"/>
<text text-anchor="start" x="1437.5" y="-435" font-family="Helvetica,sans-Serif" font-size="15.00">create_ts</text>
<polygon fill="none" stroke="black" points="1687.5,-427 1687.5,-450 1889.5,-450 1889.5,-427 1687.5,-427"/>
<text text-anchor="start" x="1690.5" y="-435" font-family="Helvetica,sans-Serif" font-size="15.00">timestamp with time zone</text>
<polygon fill="none" stroke="black" points="1086.5,-404 1086.5,-427 1434.5,-427 1434.5,-404 1086.5,-404"/>
<text text-anchor="start" x="1089.5" y="-412" font-family="Helvetica,sans-Serif" font-size="15.00">Момент обновления объекта</text>
<polygon fill="none" stroke="black" points="1434.5,-404 1434.5,-427 1687.5,-427 1687.5,-404 1434.5,-404"/>
<text text-anchor="start" x="1437.5" y="-412" font-family="Helvetica,sans-Serif" font-size="15.00">update_ts</text>
<polygon fill="none" stroke="black" points="1687.5,-404 1687.5,-427 1889.5,-427 1889.5,-404 1687.5,-404"/>
<text text-anchor="start" x="1690.5" y="-412" font-family="Helvetica,sans-Serif" font-size="15.00">timestamp with time zone</text>
<polygon fill="none" stroke="black" points="1086.5,-381 1086.5,-404 1434.5,-404 1434.5,-381 1086.5,-381"/>
<text text-anchor="start" x="1089.5" y="-389" font-family="Helvetica,sans-Serif" font-size="15.00">Срок действия объекта</text>
<polygon fill="none" stroke="black" points="1434.5,-381 1434.5,-404 1687.5,-404 1687.5,-381 1434.5,-381"/>
<text text-anchor="start" x="1437.5" y="-389" font-family="Helvetica,sans-Serif" font-size="15.00">end_ts</text>
<polygon fill="none" stroke="black" points="1687.5,-381 1687.5,-404 1889.5,-404 1889.5,-381 1687.5,-381"/>
<text text-anchor="start" x="1690.5" y="-389" font-family="Helvetica,sans-Serif" font-size="15.00">timestamp with time zone</text>
</g>
<!-- Данные ТПС по типам подвижного состава&#45;&gt;Версия входного файла ТПС -->
<g id="edge1" class="edge">
<title>Данные ТПС по типам подвижного состава&#45;&gt;Версия входного файла ТПС</title>
<path fill="none" stroke="black" stroke-dasharray="5,2" d="M1863,-377.47C1863,-309.02 1863,-233.17 1863,-233.17 1863,-233.17 2102.79,-233.17 2102.79,-233.17"/>
<polygon fill="black" stroke="black" points="2102.79,-236.67 2112.79,-233.17 2102.79,-229.67 2102.79,-236.67"/>
</g>
<!-- Классификация -->
<g id="node6" class="node">
<title>Классификация</title>
<polygon fill="lightgrey" stroke="transparent" points="2470.5,-439 2328.5,-439 2328.5,-403 2470.5,-403 2470.5,-439"/>
<text text-anchor="middle" x="2399.5" y="-417.5" font-family="Helvetica,sans-Serif" font-size="15.00">Классификация</text>
</g>
<!-- Данные ТПС по типам подвижного состава&#45;&gt;Классификация -->
<g id="edge2" class="edge">
<title>Данные ТПС по типам подвижного состава&#45;&gt;Классификация</title>
<path fill="none" stroke="black" stroke-dasharray="5,2" d="M1897.15,-421C1897.15,-421 2318.19,-421 2318.19,-421"/>
<polygon fill="black" stroke="black" points="2318.19,-424.5 2328.19,-421 2318.19,-417.5 2318.19,-424.5"/>
</g>
<!-- Данные ТПС по дорогам -->
<g id="node3" class="node">
<title>Данные ТПС по дорогам</title>
<polygon fill="lightgrey" stroke="transparent" points="1827.5,-339 1147.5,-339 1147.5,-9 1827.5,-9 1827.5,-339"/>
<polygon fill="green" stroke="transparent" points="1155.5,-312 1155.5,-335 1409.5,-335 1409.5,-312 1155.5,-312"/>
<polygon fill="none" stroke="black" points="1155.5,-312 1155.5,-335 1409.5,-335 1409.5,-312 1155.5,-312"/>
<text text-anchor="start" x="1186.5" y="-320" font-family="Helvetica,sans-Serif" font-size="15.00">Данные ТПС по дорогам</text>
<polygon fill="green" stroke="transparent" points="1409.5,-312 1409.5,-335 1617.5,-335 1617.5,-312 1409.5,-312"/>
<polygon fill="none" stroke="black" points="1409.5,-312 1409.5,-335 1617.5,-335 1617.5,-312 1409.5,-312"/>
<text text-anchor="start" x="1430.5" y="-320" font-family="Helvetica,sans-Serif" font-size="15.00">trs_values_by_road_id</text>
<polygon fill="green" stroke="transparent" points="1617.5,-312 1617.5,-335 1819.5,-335 1819.5,-312 1617.5,-312"/>
<polygon fill="none" stroke="black" points="1617.5,-312 1617.5,-335 1819.5,-335 1819.5,-312 1617.5,-312"/>
<text text-anchor="start" x="1698.5" y="-320" font-family="Helvetica,sans-Serif" font-size="15.00"> Type</text>
<polygon fill="none" stroke="black" points="1155.5,-289 1155.5,-312 1409.5,-312 1409.5,-289 1155.5,-289"/>
<text text-anchor="start" x="1158.5" y="-297" font-family="Helvetica,sans-Serif" font-size="15.00">Вид пассажирского сообщения</text>
<polygon fill="none" stroke="black" points="1409.5,-289 1409.5,-312 1617.5,-312 1617.5,-289 1409.5,-289"/>
<text text-anchor="start" x="1412.5" y="-297" font-family="Helvetica,sans-Serif" font-size="15.00">passenger_service_type_id</text>
<polygon fill="none" stroke="black" points="1617.5,-289 1617.5,-312 1819.5,-312 1819.5,-289 1617.5,-289"/>
<text text-anchor="start" x="1620.5" y="-297" font-family="Helvetica,sans-Serif" font-size="15.00">bigint</text>
<polygon fill="none" stroke="black" points="1155.5,-266 1155.5,-289 1409.5,-289 1409.5,-266 1155.5,-266"/>
<text text-anchor="start" x="1158.5" y="-274" font-family="Helvetica,sans-Serif" font-size="15.00">Заказчик</text>
<polygon fill="none" stroke="black" points="1409.5,-266 1409.5,-289 1617.5,-289 1617.5,-266 1409.5,-266"/>
<text text-anchor="start" x="1412.5" y="-274" font-family="Helvetica,sans-Serif" font-size="15.00">customer_id</text>
<polygon fill="none" stroke="black" points="1617.5,-266 1617.5,-289 1819.5,-289 1819.5,-266 1617.5,-266"/>
<text text-anchor="start" x="1620.5" y="-274" font-family="Helvetica,sans-Serif" font-size="15.00">bigint</text>
<polygon fill="none" stroke="black" points="1155.5,-243 1155.5,-266 1409.5,-266 1409.5,-243 1155.5,-243"/>
<text text-anchor="start" x="1158.5" y="-251" font-family="Helvetica,sans-Serif" font-size="15.00">Вид деятельности</text>
<polygon fill="none" stroke="black" points="1409.5,-243 1409.5,-266 1617.5,-266 1617.5,-243 1409.5,-243"/>
<text text-anchor="start" x="1412.5" y="-251" font-family="Helvetica,sans-Serif" font-size="15.00">activity_type_id</text>
<polygon fill="none" stroke="black" points="1617.5,-243 1617.5,-266 1819.5,-266 1819.5,-243 1617.5,-243"/>
<text text-anchor="start" x="1620.5" y="-251" font-family="Helvetica,sans-Serif" font-size="15.00">bigint</text>
<polygon fill="none" stroke="black" points="1155.5,-220 1155.5,-243 1409.5,-243 1409.5,-220 1155.5,-220"/>
<text text-anchor="start" x="1158.5" y="-228" font-family="Helvetica,sans-Serif" font-size="15.00">Тип подвижного состава</text>
<polygon fill="none" stroke="black" points="1409.5,-220 1409.5,-243 1617.5,-243 1617.5,-220 1409.5,-220"/>
<text text-anchor="start" x="1412.5" y="-228" font-family="Helvetica,sans-Serif" font-size="15.00">rolling_stock_type_id</text>
<polygon fill="none" stroke="black" points="1617.5,-220 1617.5,-243 1819.5,-243 1819.5,-220 1617.5,-220"/>
<text text-anchor="start" x="1620.5" y="-228" font-family="Helvetica,sans-Serif" font-size="15.00">bigint</text>
<polygon fill="none" stroke="black" points="1155.5,-197 1155.5,-220 1409.5,-220 1409.5,-197 1155.5,-197"/>
<text text-anchor="start" x="1158.5" y="-205" font-family="Helvetica,sans-Serif" font-size="15.00">Тип тяги</text>
<polygon fill="none" stroke="black" points="1409.5,-197 1409.5,-220 1617.5,-220 1617.5,-197 1409.5,-197"/>
<text text-anchor="start" x="1412.5" y="-205" font-family="Helvetica,sans-Serif" font-size="15.00">traction_type_id</text>
<polygon fill="none" stroke="black" points="1617.5,-197 1617.5,-220 1819.5,-220 1819.5,-197 1617.5,-197"/>
<text text-anchor="start" x="1620.5" y="-205" font-family="Helvetica,sans-Serif" font-size="15.00">bigint</text>
<polygon fill="none" stroke="black" points="1155.5,-174 1155.5,-197 1409.5,-197 1409.5,-174 1155.5,-174"/>
<text text-anchor="start" x="1158.5" y="-182" font-family="Helvetica,sans-Serif" font-size="15.00">Тип движения</text>
<polygon fill="none" stroke="black" points="1409.5,-174 1409.5,-197 1617.5,-197 1617.5,-174 1409.5,-174"/>
<text text-anchor="start" x="1412.5" y="-182" font-family="Helvetica,sans-Serif" font-size="15.00">traffic_tp_id</text>
<polygon fill="none" stroke="black" points="1617.5,-174 1617.5,-197 1819.5,-197 1819.5,-174 1617.5,-174"/>
<text text-anchor="start" x="1620.5" y="-182" font-family="Helvetica,sans-Serif" font-size="15.00">bigint</text>
<polygon fill="none" stroke="black" points="1155.5,-151 1155.5,-174 1409.5,-174 1409.5,-151 1155.5,-151"/>
<text text-anchor="start" x="1158.5" y="-159" font-family="Helvetica,sans-Serif" font-size="15.00">Тип показателя ТПС</text>
<polygon fill="none" stroke="black" points="1409.5,-151 1409.5,-174 1617.5,-174 1617.5,-151 1409.5,-151"/>
<text text-anchor="start" x="1412.5" y="-159" font-family="Helvetica,sans-Serif" font-size="15.00">trs_param_id</text>
<polygon fill="none" stroke="black" points="1617.5,-151 1617.5,-174 1819.5,-174 1819.5,-151 1617.5,-151"/>
<text text-anchor="start" x="1620.5" y="-159" font-family="Helvetica,sans-Serif" font-size="15.00">bigint</text>
<polygon fill="none" stroke="black" points="1155.5,-128 1155.5,-151 1409.5,-151 1409.5,-128 1155.5,-128"/>
<text text-anchor="start" x="1158.5" y="-136" font-family="Helvetica,sans-Serif" font-size="15.00">Железная дорога</text>
<polygon fill="none" stroke="black" points="1409.5,-128 1409.5,-151 1617.5,-151 1617.5,-128 1409.5,-128"/>
<text text-anchor="start" x="1412.5" y="-136" font-family="Helvetica,sans-Serif" font-size="15.00">railroad_id</text>
<polygon fill="none" stroke="black" points="1617.5,-128 1617.5,-151 1819.5,-151 1819.5,-128 1617.5,-128"/>
<text text-anchor="start" x="1620.5" y="-136" font-family="Helvetica,sans-Serif" font-size="15.00">bigint</text>
<polygon fill="none" stroke="black" points="1155.5,-105 1155.5,-128 1409.5,-128 1409.5,-105 1155.5,-105"/>
<text text-anchor="start" x="1158.5" y="-113" font-family="Helvetica,sans-Serif" font-size="15.00">Версия входного файла ТПС</text>
<polygon fill="none" stroke="black" points="1409.5,-105 1409.5,-128 1617.5,-128 1617.5,-105 1409.5,-105"/>
<text text-anchor="start" x="1412.5" y="-113" font-family="Helvetica,sans-Serif" font-size="15.00">trs_version_id</text>
<polygon fill="none" stroke="black" points="1617.5,-105 1617.5,-128 1819.5,-128 1819.5,-105 1617.5,-105"/>
<text text-anchor="start" x="1620.5" y="-113" font-family="Helvetica,sans-Serif" font-size="15.00">bigint</text>
<polygon fill="none" stroke="black" points="1155.5,-82 1155.5,-105 1409.5,-105 1409.5,-82 1155.5,-82"/>
<text text-anchor="start" x="1158.5" y="-90" font-family="Helvetica,sans-Serif" font-size="15.00">Суррогатный ключ</text>
<polygon fill="none" stroke="black" points="1409.5,-82 1409.5,-105 1617.5,-105 1617.5,-82 1409.5,-82"/>
<text text-anchor="start" x="1412.5" y="-90" font-family="Helvetica,sans-Serif" font-size="15.00">id</text>
<polygon fill="none" stroke="black" points="1617.5,-82 1617.5,-105 1819.5,-105 1819.5,-82 1617.5,-82"/>
<text text-anchor="start" x="1620.5" y="-90" font-family="Helvetica,sans-Serif" font-size="15.00">bigint</text>
<polygon fill="none" stroke="black" points="1155.5,-59 1155.5,-82 1409.5,-82 1409.5,-59 1155.5,-59"/>
<text text-anchor="start" x="1158.5" y="-67" font-family="Helvetica,sans-Serif" font-size="15.00">Момент создания объекта</text>
<polygon fill="none" stroke="black" points="1409.5,-59 1409.5,-82 1617.5,-82 1617.5,-59 1409.5,-59"/>
<text text-anchor="start" x="1412.5" y="-67" font-family="Helvetica,sans-Serif" font-size="15.00">create_ts</text>
<polygon fill="none" stroke="black" points="1617.5,-59 1617.5,-82 1819.5,-82 1819.5,-59 1617.5,-59"/>
<text text-anchor="start" x="1620.5" y="-67" font-family="Helvetica,sans-Serif" font-size="15.00">timestamp with time zone</text>
<polygon fill="none" stroke="black" points="1155.5,-36 1155.5,-59 1409.5,-59 1409.5,-36 1155.5,-36"/>
<text text-anchor="start" x="1158.5" y="-44" font-family="Helvetica,sans-Serif" font-size="15.00">Момент обновления объекта</text>
<polygon fill="none" stroke="black" points="1409.5,-36 1409.5,-59 1617.5,-59 1617.5,-36 1409.5,-36"/>
<text text-anchor="start" x="1412.5" y="-44" font-family="Helvetica,sans-Serif" font-size="15.00">update_ts</text>
<polygon fill="none" stroke="black" points="1617.5,-36 1617.5,-59 1819.5,-59 1819.5,-36 1617.5,-36"/>
<text text-anchor="start" x="1620.5" y="-44" font-family="Helvetica,sans-Serif" font-size="15.00">timestamp with time zone</text>
<polygon fill="none" stroke="black" points="1155.5,-13 1155.5,-36 1409.5,-36 1409.5,-13 1155.5,-13"/>
<text text-anchor="start" x="1158.5" y="-21" font-family="Helvetica,sans-Serif" font-size="15.00">Срок действия объекта</text>
<polygon fill="none" stroke="black" points="1409.5,-13 1409.5,-36 1617.5,-36 1617.5,-13 1409.5,-13"/>
<text text-anchor="start" x="1412.5" y="-21" font-family="Helvetica,sans-Serif" font-size="15.00">end_ts</text>
<polygon fill="none" stroke="black" points="1617.5,-13 1617.5,-36 1819.5,-36 1819.5,-13 1617.5,-13"/>
<text text-anchor="start" x="1620.5" y="-21" font-family="Helvetica,sans-Serif" font-size="15.00">timestamp with time zone</text>
</g>
<!-- Данные ТПС по дорогам&#45;&gt;Версия входного файла ТПС -->
<g id="edge3" class="edge">
<title>Данные ТПС по дорогам&#45;&gt;Версия входного файла ТПС</title>
<path fill="none" stroke="black" stroke-dasharray="5,2" d="M1827.74,-176.83C1827.74,-176.83 2102.7,-176.83 2102.7,-176.83"/>
<polygon fill="black" stroke="black" points="2102.7,-180.33 2112.7,-176.83 2102.7,-173.33 2102.7,-180.33"/>
</g>
<!-- Данные ТПС по дорогам&#45;&gt;Классификация -->
<g id="edge4" class="edge">
<title>Данные ТПС по дорогам&#45;&gt;Классификация</title>
<path fill="none" stroke="black" stroke-dasharray="5,2" d="M1827.56,-314.25C2099.32,-314.25 2435,-314.25 2435,-314.25 2435,-314.25 2435,-392.89 2435,-392.89"/>
<polygon fill="black" stroke="black" points="2431.5,-392.89 2435,-402.89 2438.5,-392.89 2431.5,-392.89"/>
</g>
<!-- Значения ТПС по типам подвижного состава -->
<g id="node4" class="node">
<title>Значения ТПС по типам подвижного состава</title>
<polygon fill="lightgrey" stroke="transparent" points="862,-608 9,-608 9,-370 862,-370 862,-608"/>
<polygon fill="green" stroke="transparent" points="17.5,-581 17.5,-604 378.5,-604 378.5,-581 17.5,-581"/>
<polygon fill="none" stroke="black" points="17.5,-581 17.5,-604 378.5,-604 378.5,-581 17.5,-581"/>
<text text-anchor="start" x="20.5" y="-589" font-family="Helvetica,sans-Serif" font-size="15.00">Значения ТПС по типам подвижного состава</text>
<polygon fill="green" stroke="transparent" points="378.5,-581 378.5,-604 652.5,-604 652.5,-581 378.5,-581"/>
<polygon fill="none" stroke="black" points="378.5,-581 378.5,-604 652.5,-604 652.5,-581 378.5,-581"/>
<text text-anchor="start" x="440" y="-589" font-family="Helvetica,sans-Serif" font-size="15.00">trs_values_schedule</text>
<polygon fill="green" stroke="transparent" points="652.5,-581 652.5,-604 854.5,-604 854.5,-581 652.5,-581"/>
<polygon fill="none" stroke="black" points="652.5,-581 652.5,-604 854.5,-604 854.5,-581 652.5,-581"/>
<text text-anchor="start" x="733.5" y="-589" font-family="Helvetica,sans-Serif" font-size="15.00"> Type</text>
<polygon fill="none" stroke="black" points="17.5,-558 17.5,-581 378.5,-581 378.5,-558 17.5,-558"/>
<text text-anchor="start" x="20.5" y="-566" font-family="Helvetica,sans-Serif" font-size="15.00">Год</text>
<polygon fill="none" stroke="black" points="378.5,-558 378.5,-581 652.5,-581 652.5,-558 378.5,-558"/>
<text text-anchor="start" x="381.5" y="-566" font-family="Helvetica,sans-Serif" font-size="15.00">year</text>
<polygon fill="none" stroke="black" points="652.5,-558 652.5,-581 854.5,-581 854.5,-558 652.5,-558"/>
<text text-anchor="start" x="655.5" y="-566" font-family="Helvetica,sans-Serif" font-size="15.00">integer</text>
<polygon fill="none" stroke="black" points="17.5,-535 17.5,-558 378.5,-558 378.5,-535 17.5,-535"/>
<text text-anchor="start" x="20.5" y="-543" font-family="Helvetica,sans-Serif" font-size="15.00">Значение</text>
<polygon fill="none" stroke="black" points="378.5,-535 378.5,-558 652.5,-558 652.5,-535 378.5,-535"/>
<text text-anchor="start" x="381.5" y="-543" font-family="Helvetica,sans-Serif" font-size="15.00">val</text>
<polygon fill="none" stroke="black" points="652.5,-535 652.5,-558 854.5,-558 854.5,-535 652.5,-535"/>
<text text-anchor="start" x="655.5" y="-543" font-family="Helvetica,sans-Serif" font-size="15.00">double precision</text>
<polygon fill="none" stroke="black" points="17.5,-512 17.5,-535 378.5,-535 378.5,-512 17.5,-512"/>
<text text-anchor="start" x="20.5" y="-520" font-family="Helvetica,sans-Serif" font-size="15.00">Единица измерения</text>
<polygon fill="none" stroke="black" points="378.5,-512 378.5,-535 652.5,-535 652.5,-512 378.5,-512"/>
<text text-anchor="start" x="381.5" y="-520" font-family="Helvetica,sans-Serif" font-size="15.00">measure_tp_id</text>
<polygon fill="none" stroke="black" points="652.5,-512 652.5,-535 854.5,-535 854.5,-512 652.5,-512"/>
<text text-anchor="start" x="655.5" y="-520" font-family="Helvetica,sans-Serif" font-size="15.00">bigint</text>
<polygon fill="none" stroke="black" points="17.5,-489 17.5,-512 378.5,-512 378.5,-489 17.5,-489"/>
<text text-anchor="start" x="20.5" y="-497" font-family="Helvetica,sans-Serif" font-size="15.00">Тип показателя ТПС</text>
<polygon fill="none" stroke="black" points="378.5,-489 378.5,-512 652.5,-512 652.5,-489 378.5,-489"/>
<text text-anchor="start" x="381.5" y="-497" font-family="Helvetica,sans-Serif" font-size="15.00">trs_param_id</text>
<polygon fill="none" stroke="black" points="652.5,-489 652.5,-512 854.5,-512 854.5,-489 652.5,-489"/>
<text text-anchor="start" x="655.5" y="-497" font-family="Helvetica,sans-Serif" font-size="15.00">bigint</text>
<polygon fill="none" stroke="black" points="17.5,-466 17.5,-489 378.5,-489 378.5,-466 17.5,-466"/>
<text text-anchor="start" x="20.5" y="-474" font-family="Helvetica,sans-Serif" font-size="15.00">Данные ТПС по типам подвижного состава</text>
<polygon fill="none" stroke="black" points="378.5,-466 378.5,-489 652.5,-489 652.5,-466 378.5,-466"/>
<text text-anchor="start" x="381.5" y="-474" font-family="Helvetica,sans-Serif" font-size="15.00">trs_values_by_rolling_stock_type_id</text>
<polygon fill="none" stroke="black" points="652.5,-466 652.5,-489 854.5,-489 854.5,-466 652.5,-466"/>
<text text-anchor="start" x="655.5" y="-474" font-family="Helvetica,sans-Serif" font-size="15.00">bigint</text>
<polygon fill="none" stroke="black" points="17.5,-443 17.5,-466 378.5,-466 378.5,-443 17.5,-443"/>
<text text-anchor="start" x="20.5" y="-451" font-family="Helvetica,sans-Serif" font-size="15.00">Суррогатный ключ</text>
<polygon fill="none" stroke="black" points="378.5,-443 378.5,-466 652.5,-466 652.5,-443 378.5,-443"/>
<text text-anchor="start" x="381.5" y="-451" font-family="Helvetica,sans-Serif" font-size="15.00">id</text>
<polygon fill="none" stroke="black" points="652.5,-443 652.5,-466 854.5,-466 854.5,-443 652.5,-443"/>
<text text-anchor="start" x="655.5" y="-451" font-family="Helvetica,sans-Serif" font-size="15.00">bigint</text>
<polygon fill="none" stroke="black" points="17.5,-420 17.5,-443 378.5,-443 378.5,-420 17.5,-420"/>
<text text-anchor="start" x="20.5" y="-428" font-family="Helvetica,sans-Serif" font-size="15.00">Момент создания объекта</text>
<polygon fill="none" stroke="black" points="378.5,-420 378.5,-443 652.5,-443 652.5,-420 378.5,-420"/>
<text text-anchor="start" x="381.5" y="-428" font-family="Helvetica,sans-Serif" font-size="15.00">create_ts</text>
<polygon fill="none" stroke="black" points="652.5,-420 652.5,-443 854.5,-443 854.5,-420 652.5,-420"/>
<text text-anchor="start" x="655.5" y="-428" font-family="Helvetica,sans-Serif" font-size="15.00">timestamp with time zone</text>
<polygon fill="none" stroke="black" points="17.5,-397 17.5,-420 378.5,-420 378.5,-397 17.5,-397"/>
<text text-anchor="start" x="20.5" y="-405" font-family="Helvetica,sans-Serif" font-size="15.00">Момент обновления объекта</text>
<polygon fill="none" stroke="black" points="378.5,-397 378.5,-420 652.5,-420 652.5,-397 378.5,-397"/>
<text text-anchor="start" x="381.5" y="-405" font-family="Helvetica,sans-Serif" font-size="15.00">update_ts</text>
<polygon fill="none" stroke="black" points="652.5,-397 652.5,-420 854.5,-420 854.5,-397 652.5,-397"/>
<text text-anchor="start" x="655.5" y="-405" font-family="Helvetica,sans-Serif" font-size="15.00">timestamp with time zone</text>
<polygon fill="none" stroke="black" points="17.5,-374 17.5,-397 378.5,-397 378.5,-374 17.5,-374"/>
<text text-anchor="start" x="20.5" y="-382" font-family="Helvetica,sans-Serif" font-size="15.00">Срок действия объекта</text>
<polygon fill="none" stroke="black" points="378.5,-374 378.5,-397 652.5,-397 652.5,-374 378.5,-374"/>
<text text-anchor="start" x="381.5" y="-382" font-family="Helvetica,sans-Serif" font-size="15.00">end_ts</text>
<polygon fill="none" stroke="black" points="652.5,-374 652.5,-397 854.5,-397 854.5,-374 652.5,-374"/>
<text text-anchor="start" x="655.5" y="-382" font-family="Helvetica,sans-Serif" font-size="15.00">timestamp with time zone</text>
</g>
<!-- Значения ТПС по типам подвижного состава&#45;&gt;Данные ТПС по типам подвижного состава -->
<g id="edge5" class="edge">
<title>Значения ТПС по типам подвижного состава&#45;&gt;Данные ТПС по типам подвижного состава</title>
<path fill="none" stroke="black" stroke-dasharray="5,2" d="M862.25,-485C862.25,-485 1067.84,-485 1067.84,-485"/>
<polygon fill="black" stroke="black" points="1067.84,-488.5 1077.84,-485 1067.84,-481.5 1067.84,-488.5"/>
</g>
<!-- Значения ТПС по типам подвижного состава&#45;&gt;Классификация -->
<g id="edge6" class="edge">
<title>Значения ТПС по типам подвижного состава&#45;&gt;Классификация</title>
<path fill="none" stroke="black" stroke-dasharray="5,2" d="M862,-373.75C1430.01,-373.75 2364,-373.75 2364,-373.75 2364,-373.75 2364,-392.87 2364,-392.87"/>
<polygon fill="black" stroke="black" points="2360.5,-392.87 2364,-402.87 2367.5,-392.87 2360.5,-392.87"/>
</g>
<!-- Значения ТПС по дорогам -->
<g id="node5" class="node">
<title>Значения ТПС по дорогам</title>
<polygon fill="lightgrey" stroke="transparent" points="747.5,-320 123.5,-320 123.5,-82 747.5,-82 747.5,-320"/>
<polygon fill="green" stroke="transparent" points="131.5,-293 131.5,-316 365.5,-316 365.5,-293 131.5,-293"/>
<polygon fill="none" stroke="black" points="131.5,-293 131.5,-316 365.5,-316 365.5,-293 131.5,-293"/>
<text text-anchor="start" x="146" y="-301" font-family="Helvetica,sans-Serif" font-size="15.00">Значения ТПС по дорогам</text>
<polygon fill="green" stroke="transparent" points="365.5,-293 365.5,-316 537.5,-316 537.5,-293 365.5,-293"/>
<polygon fill="none" stroke="black" points="365.5,-293 365.5,-316 537.5,-316 537.5,-293 365.5,-293"/>
<text text-anchor="start" x="376" y="-301" font-family="Helvetica,sans-Serif" font-size="15.00">trs_values_schedule</text>
<polygon fill="green" stroke="transparent" points="537.5,-293 537.5,-316 739.5,-316 739.5,-293 537.5,-293"/>
<polygon fill="none" stroke="black" points="537.5,-293 537.5,-316 739.5,-316 739.5,-293 537.5,-293"/>
<text text-anchor="start" x="618.5" y="-301" font-family="Helvetica,sans-Serif" font-size="15.00"> Type</text>
<polygon fill="none" stroke="black" points="131.5,-270 131.5,-293 365.5,-293 365.5,-270 131.5,-270"/>
<text text-anchor="start" x="134.5" y="-278" font-family="Helvetica,sans-Serif" font-size="15.00">Год</text>
<polygon fill="none" stroke="black" points="365.5,-270 365.5,-293 537.5,-293 537.5,-270 365.5,-270"/>
<text text-anchor="start" x="368.5" y="-278" font-family="Helvetica,sans-Serif" font-size="15.00">year</text>
<polygon fill="none" stroke="black" points="537.5,-270 537.5,-293 739.5,-293 739.5,-270 537.5,-270"/>
<text text-anchor="start" x="540.5" y="-278" font-family="Helvetica,sans-Serif" font-size="15.00">integer</text>
<polygon fill="none" stroke="black" points="131.5,-247 131.5,-270 365.5,-270 365.5,-247 131.5,-247"/>
<text text-anchor="start" x="134.5" y="-255" font-family="Helvetica,sans-Serif" font-size="15.00">Значение</text>
<polygon fill="none" stroke="black" points="365.5,-247 365.5,-270 537.5,-270 537.5,-247 365.5,-247"/>
<text text-anchor="start" x="368.5" y="-255" font-family="Helvetica,sans-Serif" font-size="15.00">val</text>
<polygon fill="none" stroke="black" points="537.5,-247 537.5,-270 739.5,-270 739.5,-247 537.5,-247"/>
<text text-anchor="start" x="540.5" y="-255" font-family="Helvetica,sans-Serif" font-size="15.00">double precision</text>
<polygon fill="none" stroke="black" points="131.5,-224 131.5,-247 365.5,-247 365.5,-224 131.5,-224"/>
<text text-anchor="start" x="134.5" y="-232" font-family="Helvetica,sans-Serif" font-size="15.00">Единица измерения</text>
<polygon fill="none" stroke="black" points="365.5,-224 365.5,-247 537.5,-247 537.5,-224 365.5,-224"/>
<text text-anchor="start" x="368.5" y="-232" font-family="Helvetica,sans-Serif" font-size="15.00">measure_tp_id</text>
<polygon fill="none" stroke="black" points="537.5,-224 537.5,-247 739.5,-247 739.5,-224 537.5,-224"/>
<text text-anchor="start" x="540.5" y="-232" font-family="Helvetica,sans-Serif" font-size="15.00">bigint</text>
<polygon fill="none" stroke="black" points="131.5,-201 131.5,-224 365.5,-224 365.5,-201 131.5,-201"/>
<text text-anchor="start" x="134.5" y="-209" font-family="Helvetica,sans-Serif" font-size="15.00">Тип показателя ТПС</text>
<polygon fill="none" stroke="black" points="365.5,-201 365.5,-224 537.5,-224 537.5,-201 365.5,-201"/>
<text text-anchor="start" x="368.5" y="-209" font-family="Helvetica,sans-Serif" font-size="15.00">trs_param_id</text>
<polygon fill="none" stroke="black" points="537.5,-201 537.5,-224 739.5,-224 739.5,-201 537.5,-201"/>
<text text-anchor="start" x="540.5" y="-209" font-family="Helvetica,sans-Serif" font-size="15.00">bigint</text>
<polygon fill="none" stroke="black" points="131.5,-178 131.5,-201 365.5,-201 365.5,-178 131.5,-178"/>
<text text-anchor="start" x="134.5" y="-186" font-family="Helvetica,sans-Serif" font-size="15.00">Данные ТПС по дорогам</text>
<polygon fill="none" stroke="black" points="365.5,-178 365.5,-201 537.5,-201 537.5,-178 365.5,-178"/>
<text text-anchor="start" x="368.5" y="-186" font-family="Helvetica,sans-Serif" font-size="15.00">trs_values_by_road_id</text>
<polygon fill="none" stroke="black" points="537.5,-178 537.5,-201 739.5,-201 739.5,-178 537.5,-178"/>
<text text-anchor="start" x="540.5" y="-186" font-family="Helvetica,sans-Serif" font-size="15.00">bigint</text>
<polygon fill="none" stroke="black" points="131.5,-155 131.5,-178 365.5,-178 365.5,-155 131.5,-155"/>
<text text-anchor="start" x="134.5" y="-163" font-family="Helvetica,sans-Serif" font-size="15.00">Суррогатный ключ</text>
<polygon fill="none" stroke="black" points="365.5,-155 365.5,-178 537.5,-178 537.5,-155 365.5,-155"/>
<text text-anchor="start" x="368.5" y="-163" font-family="Helvetica,sans-Serif" font-size="15.00">id</text>
<polygon fill="none" stroke="black" points="537.5,-155 537.5,-178 739.5,-178 739.5,-155 537.5,-155"/>
<text text-anchor="start" x="540.5" y="-163" font-family="Helvetica,sans-Serif" font-size="15.00">bigint</text>
<polygon fill="none" stroke="black" points="131.5,-132 131.5,-155 365.5,-155 365.5,-132 131.5,-132"/>
<text text-anchor="start" x="134.5" y="-140" font-family="Helvetica,sans-Serif" font-size="15.00">Момент создания объекта</text>
<polygon fill="none" stroke="black" points="365.5,-132 365.5,-155 537.5,-155 537.5,-132 365.5,-132"/>
<text text-anchor="start" x="368.5" y="-140" font-family="Helvetica,sans-Serif" font-size="15.00">create_ts</text>
<polygon fill="none" stroke="black" points="537.5,-132 537.5,-155 739.5,-155 739.5,-132 537.5,-132"/>
<text text-anchor="start" x="540.5" y="-140" font-family="Helvetica,sans-Serif" font-size="15.00">timestamp with time zone</text>
<polygon fill="none" stroke="black" points="131.5,-109 131.5,-132 365.5,-132 365.5,-109 131.5,-109"/>
<text text-anchor="start" x="134.5" y="-117" font-family="Helvetica,sans-Serif" font-size="15.00">Момент обновления объекта</text>
<polygon fill="none" stroke="black" points="365.5,-109 365.5,-132 537.5,-132 537.5,-109 365.5,-109"/>
<text text-anchor="start" x="368.5" y="-117" font-family="Helvetica,sans-Serif" font-size="15.00">update_ts</text>
<polygon fill="none" stroke="black" points="537.5,-109 537.5,-132 739.5,-132 739.5,-109 537.5,-109"/>
<text text-anchor="start" x="540.5" y="-117" font-family="Helvetica,sans-Serif" font-size="15.00">timestamp with time zone</text>
<polygon fill="none" stroke="black" points="131.5,-86 131.5,-109 365.5,-109 365.5,-86 131.5,-86"/>
<text text-anchor="start" x="134.5" y="-94" font-family="Helvetica,sans-Serif" font-size="15.00">Срок действия объекта</text>
<polygon fill="none" stroke="black" points="365.5,-86 365.5,-109 537.5,-109 537.5,-86 365.5,-86"/>
<text text-anchor="start" x="368.5" y="-94" font-family="Helvetica,sans-Serif" font-size="15.00">end_ts</text>
<polygon fill="none" stroke="black" points="537.5,-86 537.5,-109 739.5,-109 739.5,-86 537.5,-86"/>
<text text-anchor="start" x="540.5" y="-94" font-family="Helvetica,sans-Serif" font-size="15.00">timestamp with time zone</text>
</g>
<!-- Значения ТПС по дорогам&#45;&gt;Данные ТПС по дорогам -->
<g id="edge7" class="edge">
<title>Значения ТПС по дорогам&#45;&gt;Данные ТПС по дорогам</title>
<path fill="none" stroke="black" stroke-dasharray="5,2" d="M747.58,-201C747.58,-201 1137.04,-201 1137.04,-201"/>
<polygon fill="black" stroke="black" points="1137.04,-204.5 1147.04,-201 1137.04,-197.5 1137.04,-204.5"/>
</g>
<!-- Значения ТПС по дорогам&#45;&gt;Классификация -->
<g id="edge8" class="edge">
<title>Значения ТПС по дорогам&#45;&gt;Классификация</title>
<path fill="none" stroke="black" stroke-dasharray="5,2" d="M436,-320.05C436,-340.07 436,-354.5 436,-354.5 436,-354.5 2400,-354.5 2400,-354.5 2400,-354.5 2400,-392.83 2400,-392.83"/>
<polygon fill="black" stroke="black" points="2396.5,-392.83 2400,-402.83 2403.5,-392.83 2396.5,-392.83"/>
</g>
</g>
</svg>
